<svg width="120" height="120" viewBox="0 0 120 120" fill="none" xmlns="http://www.w3.org/2000/svg">
  <!-- Background circle - new indigo accent -->
  <circle cx="60" cy="60" r="55" fill="#6366f1"/>
  <circle cx="60" cy="60" r="48" fill="#09090b"/>
  
  <!-- Modern hunter agent head / helmet -->
  <rect x="30" y="30" width="60" height="44" rx="10" fill="#6366f1"/>
  
  <!-- Antenna with new age signal -->
  <circle cx="60" cy="22" r="5" fill="#6366f1"/>
  <line x1="60" y1="27" x2="60" y2="33" stroke="#6366f1" stroke-width="3"/>
  <!-- Signal waves -->
  <path d="M48 18 Q60 10 72 18" stroke="#a5b4fc" stroke-width="2" fill="none" opacity="0.8"/>
  <path d="M44 14 Q60 4 76 14" stroke="#a5b4fc" stroke-width="1.5" fill="none" opacity="0.6"/>
  
  <!-- Visor / scanning eyes -->
  <rect x="38" y="42" width="16" height="12" rx="3" fill="#09090b"/>
  <rect x="66" y="42" width="16" height="12" rx="3" fill="#09090b"/>
  <!-- Eye highlights / reticle -->
  <circle cx="46" cy="48" r="4" fill="#6366f1"/>
  <circle cx="74" cy="48" r="4" fill="#6366f1"/>
  <!-- Hunter reticle on right eye -->
  <line x1="70" y1="46" x2="78" y2="50" stroke="#09090b" stroke-width="1.2"/>
  <line x1="70" y1="50" x2="78" y2="46" stroke="#09090b" stroke-width="1.2"/>
  <circle cx="74" cy="48" r="1.5" fill="#09090b"/>
  
  <!-- Bounty coin / reward -->
  <circle cx="60" cy="70" r="10" fill="#67f6d1" stroke="#09090b" stroke-width="2"/>
  <text x="60" y="74" text-anchor="middle" fill="#0f172a" font-family="system-ui, sans-serif" font-size="11" font-weight="bold">$</text>
  
  <!-- Label -->
  <text x="60" y="98" text-anchor="middle" fill="#6366f1" font-family="system-ui, sans-serif" font-size="16" font-weight="700">BH</text>
</svg>